<svg id="Capa_1" data-name="Capa 1" xmlns="http://www.w3.org/2000/svg" viewBox="0 0 96 95.85"><defs><style>.cls-1{fill:#9741d7;}.cls-2{fill:#4d84e1;}.cls-3{fill:none;stroke:#4d84e1;stroke-linecap:round;stroke-linejoin:round;stroke-width:3px;}</style></defs><title>favicon</title><rect class="cls-1" x="45.05" width="6.25" height="12.28" rx="3.13"/><rect class="cls-1" x="65.97" y="77.9" width="6.25" height="12.28" rx="3.13" transform="translate(-32.76 45.73) rotate(-30)"/><rect class="cls-1" x="80.98" y="62.7" width="6.25" height="12.28" rx="3.13" transform="translate(-17.56 107.19) rotate(-60)"/><rect class="cls-1" x="23.76" y="77.91" width="6.25" height="12.28" rx="3.13" transform="translate(8.15 170.21) rotate(-150)"/><rect class="cls-1" x="8.75" y="62.72" width="6.25" height="12.28" rx="3.13" transform="translate(-41.82 113.49) rotate(-120)"/><rect class="cls-1" x="8.99" y="21.27" width="6.25" height="12.28" rx="3.13" transform="translate(-17.67 24.12) rotate(-60)"/><rect class="cls-1" x="24.36" y="5.37" width="6.25" height="12.28" rx="3.13" transform="translate(-2.07 15.21) rotate(-30)"/><rect class="cls-1" x="80.98" y="21.27" width="6.25" height="12.28" rx="3.13" transform="translate(61.14 -58.1) rotate(56.9)"/><rect class="cls-1" x="65.78" y="5.71" width="6.25" height="12.28" rx="3.13" transform="translate(15.16 -32.94) rotate(30)"/><rect class="cls-1" x="3.01" y="41.84" width="6.25" height="12.28" rx="3.13" transform="translate(-41.84 54.04) rotate(-90)"/><rect class="cls-1" x="86.74" y="41.84" width="6.25" height="12.28" rx="3.13" transform="translate(137.84 -41.96) rotate(90)"/><rect class="cls-1" x="45.24" y="83.57" width="6.25" height="12.28" rx="3.13"/><path class="cls-2" d="M48.37,21.49A26.42,26.42,0,1,1,22,47.9,26.44,26.44,0,0,1,48.37,21.49m0-3A29.42,29.42,0,1,0,77.78,47.9,29.42,29.42,0,0,0,48.37,18.49Z" transform="translate(0 -0.08)"/><path class="cls-3" d="M34.28,49.47s3.86-15.29,14.09-14.59" transform="translate(0 -0.08)"/></svg>