<svg id="Capa_1" data-name="Capa 1" xmlns="http://www.w3.org/2000/svg" viewBox="0 0 1342.29 348.21"><defs><style>.cls-1{fill:#9741d7;}.cls-2{fill:#4d84e1;}.cls-3,.cls-6,.cls-9{fill:none;}.cls-3{stroke:#4d84e1;stroke-width:12px;}.cls-10,.cls-3,.cls-5,.cls-6,.cls-7,.cls-9{stroke-linecap:round;stroke-linejoin:round;}.cls-10,.cls-4,.cls-5,.cls-7{fill:#fff;}.cls-5,.cls-6,.cls-9{stroke:#9741d7;}.cls-5,.cls-7,.cls-9{stroke-width:7px;}.cls-6{stroke-width:3px;}.cls-10,.cls-7{stroke:#4e82e1;}.cls-8{fill:#4e82e1;}.cls-10{stroke-width:5px;}</style></defs><title>fondo-Icons</title><g id="SOLEADO"><rect class="cls-1" x="327.07" y="20.39" width="11.57" height="22.71" rx="5.79"/><rect class="cls-1" x="365.78" y="164.39" width="11.57" height="22.71" rx="5.79" transform="translate(-38.09 209.33) rotate(-30)"/><rect class="cls-1" x="393.57" y="136.28" width="11.57" height="22.71" rx="5.79" transform="translate(71.82 419.67) rotate(-60)"/><rect class="cls-1" x="287.68" y="164.43" width="11.57" height="22.71" rx="5.79" transform="translate(459.72 474.75) rotate(-150)"/><rect class="cls-1" x="259.89" y="136.31" width="11.57" height="22.71" rx="5.79" transform="translate(270.63 451.59) rotate(-120)"/><rect class="cls-1" x="260.35" y="59.61" width="11.57" height="22.71" rx="5.79" transform="translate(71.61 265.96) rotate(-60)"/><rect class="cls-1" x="288.78" y="30.18" width="11.57" height="22.71" rx="5.79" transform="translate(18.7 152.85) rotate(-30)"/><rect class="cls-1" x="393.57" y="59.61" width="11.57" height="22.71" rx="5.79" transform="translate(240.72 -302.33) rotate(56.9)"/><rect class="cls-1" x="365.42" y="30.82" width="11.57" height="22.71" rx="5.79" transform="translate(70.82 -179.95) rotate(30)"/><rect class="cls-1" x="249.28" y="97.68" width="11.57" height="22.71" rx="5.79" transform="translate(146.03 364.1) rotate(-90)"/><rect class="cls-1" x="404.21" y="97.68" width="11.57" height="22.71" rx="5.79" transform="translate(519.03 -300.96) rotate(90)"/><rect class="cls-1" x="327.42" y="175.04" width="11.57" height="22.71" rx="5.79"/><path class="cls-2" d="M333.21,66.47a42.43,42.43,0,1,1-42.43,42.42,42.48,42.48,0,0,1,42.43-42.42m0-12a54.43,54.43,0,1,0,54.43,54.42,54.42,54.42,0,0,0-54.43-54.42Z"/><path class="cls-3" d="M307.14,111.79s7.14-28.29,26.07-27"/></g><g id="NUBLADO"><g id="SOL"><rect class="cls-2" x="792.78" y="3.6" width="11.57" height="22.71" rx="5.79"/><rect class="cls-2" x="831.5" y="147.6" width="11.57" height="22.71" rx="5.79" transform="translate(32.7 439.94) rotate(-30)"/><rect class="cls-2" x="859.28" y="119.49" width="11.57" height="22.71" rx="5.79" transform="translate(319.22 814.59) rotate(-60)"/><rect class="cls-1" x="753.4" y="147.63" width="11.57" height="22.71" rx="5.79" transform="translate(1337.16 676.27) rotate(-150)"/><rect class="cls-1" x="725.61" y="119.52" width="11.57" height="22.71" rx="5.79" transform="translate(983.75 829.72) rotate(-120)"/><rect class="cls-1" x="726.07" y="42.81" width="11.57" height="22.71" rx="5.79" transform="translate(319.01 660.89) rotate(-60)"/><rect class="cls-2" x="754.5" y="13.39" width="11.57" height="22.71" rx="5.79" transform="translate(89.49 383.46) rotate(-30)"/><rect class="cls-2" x="853.71" y="48.39" width="22.71" height="11.57" rx="5.79" transform="translate(110.8 481.2) rotate(-33.1)"/><rect class="cls-2" x="825.57" y="19.6" width="22.71" height="11.57" rx="5.79" transform="translate(396.48 737.49) rotate(-60)"/><rect class="cls-1" x="715" y="80.89" width="11.57" height="22.71" rx="5.79" transform="translate(628.54 813.03) rotate(-90)"/><rect class="cls-2" x="864.35" y="86.46" width="22.71" height="11.57" rx="5.79"/><rect class="cls-2" x="793.14" y="158.24" width="11.57" height="22.71" rx="5.79"/><path class="cls-2" d="M798.93,49.67A42.43,42.43,0,1,1,756.5,92.1a42.48,42.48,0,0,1,42.43-42.43m0-12A54.43,54.43,0,1,0,853.35,92.1a54.43,54.43,0,0,0-54.42-54.43Z"/><path class="cls-3" d="M772.85,95S780,66.71,798.93,68"/></g><path class="cls-4" d="M668.72,176.61l-.74,0a35.81,35.81,0,0,1,1.08-71.6c1.08,0,2.18.06,3.35.17l4.32.4-.52-4.31a50.27,50.27,0,0,1-.36-6,49.45,49.45,0,1,1,98.56,5.84l-.47,4,4,0h.26a35.81,35.81,0,1,1,.06,71.61Z"/><path class="cls-1" d="M725.3,49.31a46,46,0,0,1,46,46,47.35,47.35,0,0,1-.32,5.43l-.93,7.89,8-.08h.36a32.31,32.31,0,0,1-.06,64.62H669l-.91,0a32.31,32.31,0,0,1,1-64.6c1,0,2,.05,3,.15l8.63.8-1-8.61a47.3,47.3,0,0,1-.33-5.57A46,46,0,0,1,725.3,49.31m0-7a53,53,0,0,0-52.95,53,54.22,54.22,0,0,0,.38,6.41c-1.21-.11-2.43-.18-3.67-.18a39.3,39.3,0,0,0-1.19,78.59v0H778.25a39.31,39.31,0,0,0,0-78.62h-.37a53.48,53.48,0,0,0,.37-6.24,53,53,0,0,0-53-52.95Z"/><path class="cls-5" d="M738,136.18s5.43-32,38.54-32.57"/></g><g id="ELOCIDAD-VIENTO"><path class="cls-4" d="M1183.06,163.67l-.72,0a35.8,35.8,0,0,1,1.08-71.59c1.08,0,2.18,0,3.35.16l4.32.4-.52-4.3a50.32,50.32,0,0,1-.36-6,49.45,49.45,0,1,1,98.56,5.84l-.47,4,4.23-.07a35.81,35.81,0,1,1,.08,71.62Z"/><path class="cls-1" d="M1239.66,36.36a46,46,0,0,1,45.95,46,47.22,47.22,0,0,1-.32,5.43l-.93,7.89,8-.07h.36a32.31,32.31,0,0,1-.06,64.62H1183.35l-.91,0a32.3,32.3,0,0,1,1-64.59c1,0,2,0,3,.15l8.63.8-1-8.61a47.59,47.59,0,0,1-.33-5.58,46,46,0,0,1,46-45.95m0-7a53,53,0,0,0-53,53,54.39,54.39,0,0,0,.38,6.42c-1.21-.12-2.43-.18-3.67-.18a39.3,39.3,0,0,0-1.19,78.59v0h110.38a39.31,39.31,0,1,0,0-78.62h-.37a53.66,53.66,0,0,0,.37-6.25,53,53,0,0,0-52.95-52.95Z"/><path class="cls-5" d="M1252.33,123.23s5.43-32,38.54-32.57"/><path class="cls-6" d="M999.25,302.57h47.89s5.47-1.82,2.79-6.64c0,0-2.79-4.07-7.29,0"/><path class="cls-6" d="M987.25,310.07h47.89s5.47,1.82,2.79,6.64c0,0-2.79,4.08-7.29,0"/><path class="cls-7" d="M1178.41,196.64h136.91s15.62-5.21,8-19c0,0-8-11.64-20.82,0"/><path class="cls-7" d="M1144.11,218.07H1281s15.62,5.21,8,19c0,0-8,11.64-20.83,0"/></g><g id="CHAPARRONES"><path class="cls-4" d="M52.26,272.86l-.38,0a41.28,41.28,0,0,1,1.24-82.54c1.25,0,2.52.06,3.87.19h.32a3.49,3.49,0,0,0,3.47-3.92,58.93,58.93,0,0,1-.41-6.88,56.83,56.83,0,0,1,113.66,0,58.17,58.17,0,0,1-.4,6.7,3.5,3.5,0,0,0,3.48,3.91h.32a41.29,41.29,0,1,1,.1,82.57Z"/><path class="cls-8" d="M117.2,126.36a53.39,53.39,0,0,1,53.33,53.33,55.55,55.55,0,0,1-.37,6.29,7,7,0,0,0,7,7.82h.47a37.79,37.79,0,0,1-.05,75.57H52.46l-.48,0a37.78,37.78,0,0,1,1.14-75.54c1.14,0,2.3.06,3.54.17l.65,0a7,7,0,0,0,7-7.84,54,54,0,0,1-.39-6.46,53.39,53.39,0,0,1,53.33-53.33m60.4,67.43h0m-60.4-74.43A60.36,60.36,0,0,0,57.31,187c-1.38-.13-2.77-.2-4.19-.2a44.78,44.78,0,0,0-1.35,89.54v0H177.53a44.79,44.79,0,0,0,0-89.57h-.42a61.84,61.84,0,0,0,.42-7.11,60.33,60.33,0,0,0-60.33-60.33Z"/><path class="cls-7" d="M131.63,226.31s6.19-36.5,43.92-37.11"/><path class="cls-9" d="M93.48,291.66a15.86,15.86,0,0,1-13.77,23.77h0A15.86,15.86,0,0,1,66,291.63h0l13.76-23.77,13.71,23.8Z"/><path class="cls-9" d="M102.9,240.64a11.72,11.72,0,0,1-10.17,17.57h0A11.72,11.72,0,0,1,82.6,240.62h0l10.17-17.57,10.13,17.59Z"/><polygon class="cls-4" points="127.24 294.57 110.86 294.57 121.03 253.36 151.84 253.36 138.98 279.07 157.84 279.07 119.57 325.97 127.24 294.57"/><path class="cls-1" d="M146.17,256.86l-7.79,15.58-5.06,10.13h17.15l-23.82,29.2,2.94-12,2.11-8.66H115.33l8.44-34.21h22.4m11.33-7H118.29l-11.9,48.21h16.4L112.5,340.18l52.71-64.61H144.64l12.86-25.71Z"/></g><g id="NOCHE-DESPEJADA"><path class="cls-4" d="M534.7,311.93a81.85,81.85,0,0,1-44.92-150.27,88.9,88.9,0,0,0,117.12,107A81.4,81.4,0,0,1,534.7,311.93Z"/><path class="cls-1" d="M484.32,170.05A92.47,92.47,0,0,0,599,274.9a78.75,78.75,0,0,1-19.84,19.71,78.36,78.36,0,0,1-94.82-124.56M496.07,154Zm0,0A85.35,85.35,0,1,0,614,261.7,85.38,85.38,0,0,1,496.07,154Z"/><path class="cls-4" d="M491.11,221l-.2,0a17.94,17.94,0,0,1,.54-35.88,16.25,16.25,0,0,1,1.68.08h.23a2.5,2.5,0,0,0,2.49-2.8,23.86,23.86,0,0,1-.19-3,25,25,0,1,1,50.1,0,26.84,26.84,0,0,1-.17,3,2.5,2.5,0,0,0,2.48,2.79h.17a18,18,0,1,1,0,35.9Z"/><path class="cls-8" d="M520.71,156.75a22.57,22.57,0,0,1,22.55,22.55,21.86,21.86,0,0,1-.16,2.67,5,5,0,0,0,5,5.58h.24a15.45,15.45,0,0,1,0,30.9H491a15.45,15.45,0,0,1,.47-30.9c.47,0,.94,0,1.45.08l.46,0a5,5,0,0,0,5-5.6,22.9,22.9,0,0,1-.17-2.74,22.58,22.58,0,0,1,22.55-22.55m27.64,30.79h0m-27.64-35.79a27.56,27.56,0,0,0-27.55,27.55,28.39,28.39,0,0,0,.2,3.34c-.63-.06-1.26-.1-1.91-.1a20.45,20.45,0,0,0-.62,40.89v0h57.43a20.46,20.46,0,0,0,0-40.91h-.19a26.88,26.88,0,0,0,.19-3.25,27.55,27.55,0,0,0-27.55-27.55Z"/><path class="cls-10" d="M527.3,200.59s2.83-16.66,20.06-17"/></g><g id="LLUVIAS"><path class="cls-4" d="M937.51,270.47a2.43,2.43,0,0,0-.38,0,40,40,0,0,1,1.21-79.94c1.21,0,2.43.06,3.74.18l.33,0a3.51,3.51,0,0,0,3.47-3.92,55.07,55.07,0,1,1,109.74-6.67,56.63,56.63,0,0,1-.38,6.49,3.5,3.5,0,0,0,3.48,3.91h.32a40,40,0,1,1,.08,80Z"/><path class="cls-8" d="M1000.55,128.53a51.59,51.59,0,0,1,51.21,57.67,7,7,0,0,0,7,7.81h.46a36.49,36.49,0,0,1-.06,73H937.71a3.71,3.71,0,0,0-.47,0,36.48,36.48,0,0,1,1.1-72.94c1.1,0,2.22.06,3.42.17.21,0,.43,0,.65,0a7,7,0,0,0,6.94-7.84,52.53,52.53,0,0,1-.37-6.25,51.63,51.63,0,0,1,51.57-51.58M1059.2,194h0m-58.65-72.47A58.58,58.58,0,0,0,942,180.11a57.31,57.31,0,0,0,.43,7.09c-1.34-.13-2.7-.2-4.07-.2A43.48,43.48,0,0,0,937,273.94v0h122.09a43.49,43.49,0,1,0,0-87h-.4a60.45,60.45,0,0,0,.4-6.9,58.58,58.58,0,0,0-58.57-58.58Z"/><path class="cls-7" d="M1014.56,225.37s6-35.43,42.64-36"/><path class="cls-9" d="M1003.16,296.07a15.85,15.85,0,0,1-13.76,23.76h0A15.85,15.85,0,0,1,975.7,296h0l13.76-23.77,13.7,23.81Z"/><path class="cls-9" d="M983.7,245.05a11.72,11.72,0,0,1-10.18,17.57h0A11.73,11.73,0,0,1,963.39,245h0l10.18-17.57,10.13,17.6Z"/><path class="cls-5" d="M1035.57,257a19.65,19.65,0,0,1-17,29.46h0a19.65,19.65,0,0,1-17-29.5h0l17.05-29.46,17,29.5Z"/></g></svg>