<svg xmlns="http://www.w3.org/2000/svg" viewBox="0 0 19.77 41.48"><defs><style>.cls-1{fill:#9741d7;}</style></defs><title>Recurso 1</title><g id="Capa_2" data-name="Capa 2"><g id="Capa_1-2" data-name="Capa 1"><path class="cls-1" d="M9.88,3A2.14,2.14,0,0,1,12,5.14v18a3,3,0,0,0,1.43,2.56,6.89,6.89,0,1,1-7.15,0,3,3,0,0,0,1.43-2.56v-18A2.14,2.14,0,0,1,9.88,3m0-3h0A5.14,5.14,0,0,0,4.74,5.14v18a9.89,9.89,0,1,0,10.29,0v-18A5.15,5.15,0,0,0,9.88,0Z"/><circle class="cls-1" cx="9.83" cy="31.91" r="4.65"/><rect class="cls-1" x="9.24" y="12.77" width="1" height="17.36" rx="0.5"/></g></g></svg>