<?xml version="1.0" encoding="utf-8"?>
<!-- Generator: Adobe Illustrator 23.0.0, SVG Export Plug-In . SVG Version: 6.00 Build 0)  -->
<svg version="1.1" xmlns="http://www.w3.org/2000/svg" xmlns:xlink="http://www.w3.org/1999/xlink" x="0px" y="0px"
	 viewBox="0 0 250.9 315.6" style="enable-background:new 0 0 250.9 315.6;" xml:space="preserve">
<style type="text/css">
	.st0{fill:#9741D7;}
	.st1{fill:none;stroke:#4E82E1;stroke-width:10;stroke-linecap:round;stroke-linejoin:round;stroke-miterlimit:10;}
	.st2{fill:#4E82E1;}
</style>
<g id="MEDIDOR">
	<path class="st0" d="M5.1,315.6L5.1,315.6c-2.8,0-5.1-2.3-5.1-5.1L0,5.1C0,2.3,2.3,0,5.1,0h0c2.8,0,5.1,2.3,5.1,5.1v305.4
		C10.3,313.3,8,315.6,5.1,315.6z"/>
	<path class="st0" d="M11.1,273.7h28.2c3.6,0,6.5-2.9,6.5-6.5l0,0c0-3.6-2.9-6.5-6.5-6.5H11.1c-3.6,0-6.5,2.9-6.5,6.5l0,0
		C4.6,270.8,7.5,273.7,11.1,273.7z"/>
	<path class="st0" d="M9.9,250H25c3.4,0,6.1-2.7,6.1-6.1v0c0-3.4-2.7-6.1-6.1-6.1H9.9c-3.4,0-6.1,2.7-6.1,6.1v0
		C3.8,247.3,6.5,250,9.9,250z"/>
	<path class="st0" d="M11.5,226.8h28.2c3.6,0,6.5-2.9,6.5-6.5v0c0-3.6-2.9-6.5-6.5-6.5H11.5c-3.6,0-6.5,2.9-6.5,6.5v0
		C5,223.9,7.9,226.8,11.5,226.8z"/>
	<path class="st0" d="M10.3,203.1h15.1c3.4,0,6.1-2.7,6.1-6.1v0c0-3.4-2.7-6.1-6.1-6.1H10.3c-3.4,0-6.1,2.7-6.1,6.1v0
		C4.2,200.4,6.9,203.1,10.3,203.1z"/>
	<path class="st0" d="M11.3,180.2h28.2c3.6,0,6.5-2.9,6.5-6.5v0c0-3.6-2.9-6.5-6.5-6.5H11.3c-3.6,0-6.5,2.9-6.5,6.5v0
		C4.8,177.3,7.7,180.2,11.3,180.2z"/>
	<path class="st0" d="M10.1,156.5h15.1c3.4,0,6.1-2.7,6.1-6.1v0c0-3.4-2.7-6.1-6.1-6.1H10.1c-3.4,0-6.1,2.7-6.1,6.1v0
		C4,153.8,6.7,156.5,10.1,156.5z"/>
	<path class="st0" d="M11.7,133.4h28.2c3.6,0,6.5-2.9,6.5-6.5v0c0-3.6-2.9-6.5-6.5-6.5H11.7c-3.6,0-6.5,2.9-6.5,6.5v0
		C5.2,130.5,8.1,133.4,11.7,133.4z"/>
	<path class="st0" d="M10.5,109.7h15.1c3.4,0,6.1-2.7,6.1-6.1v0c0-3.4-2.7-6.1-6.1-6.1H10.5c-3.4,0-6.1,2.7-6.1,6.1v0
		C4.4,106.9,7.1,109.7,10.5,109.7z"/>
	<path class="st0" d="M11.3,86.8h28.2c3.6,0,6.5-2.9,6.5-6.5v0c0-3.6-2.9-6.5-6.5-6.5H11.3c-3.6,0-6.5,2.9-6.5,6.5v0
		C4.8,83.9,7.7,86.8,11.3,86.8z"/>
	<path class="st0" d="M10.1,63.1h15.1c3.4,0,6.1-2.7,6.1-6.1v0c0-3.4-2.7-6.1-6.1-6.1H10.1C6.7,50.8,4,53.6,4,57v0
		C4,60.3,6.7,63.1,10.1,63.1z"/>
	<path class="st0" d="M11.7,39.9h28.2c3.6,0,6.5-2.9,6.5-6.5v0c0-3.6-2.9-6.5-6.5-6.5H11.7c-3.6,0-6.5,2.9-6.5,6.5v0
		C5.2,37,8.1,39.9,11.7,39.9z"/>
</g>
<g id="FLECA-1">
	<path class="st1" d="M91.1,28.9c0,0,22.5,14.6,0,41.1s0,41.1,0,41.1s22.5,16.6,0,40.9s0,41.5,0,41.5s22.5,16.8,0,41.1v19.6"/>
	<path class="st2" d="M64.9,244.6l19.9,19.9c2.5,2.5,6.7,2.5,9.2,0h0c2.5-2.5,2.5-6.7,0-9.2l-19.9-19.9c-2.5-2.5-6.7-2.5-9.2,0l0,0
		C62.4,238,62.4,242.1,64.9,244.6z"/>
	<path class="st2" d="M115.6,244.6l-19.9,19.9c-2.5,2.5-6.7,2.5-9.2,0h0c-2.5-2.5-2.5-6.7,0-9.2l19.9-19.9c2.5-2.5,6.7-2.5,9.2,0
		l0,0C118.2,238,118.2,242.1,115.6,244.6z"/>
</g>
<g id="FLEHA-2">
	<path class="st1" d="M154.1,28.9c0,0,22.5,14.6,0,41.1s0,41.1,0,41.1s22.5,16.6,0,40.9s0,41.5,0,41.5s22.5,16.8,0,41.1v19.6"/>
	<path class="st2" d="M127.9,244.6l19.9,19.9c2.5,2.5,6.7,2.5,9.2,0h0c2.5-2.5,2.5-6.7,0-9.2l-19.9-19.9c-2.5-2.5-6.7-2.5-9.2,0l0,0
		C125.4,238,125.4,242.1,127.9,244.6z"/>
	<path class="st2" d="M178.6,244.6l-19.9,19.9c-2.5,2.5-6.7,2.5-9.2,0l0,0c-2.5-2.5-2.5-6.7,0-9.2l19.9-19.9c2.5-2.5,6.7-2.5,9.2,0
		l0,0C181.2,238,181.2,242.1,178.6,244.6z"/>
</g>
<g id="FLECHA-3">
	<path class="st1" d="M222.7,29.6c0,0,22.5,14.6,0,41.1s0,41.1,0,41.1s22.5,16.6,0,40.9s0,41.5,0,41.5s22.5,16.8,0,41.1v19.6"/>
	<path class="st2" d="M196.5,245.4l19.9,19.9c2.5,2.5,6.7,2.5,9.2,0l0,0c2.5-2.5,2.5-6.7,0-9.2l-19.9-19.9c-2.5-2.5-6.7-2.5-9.2,0h0
		C194,238.7,194,242.8,196.5,245.4z"/>
	<path class="st2" d="M247.2,245.4l-19.9,19.9c-2.5,2.5-6.7,2.5-9.2,0l0,0c-2.5-2.5-2.5-6.7,0-9.2l19.9-19.9c2.5-2.5,6.7-2.5,9.2,0
		h0C249.8,238.7,249.8,242.8,247.2,245.4z"/>
</g>
</svg>
